<?xml version="1.0" encoding="utf-8"?>
<!-- Generator: Adobe Illustrator 16.0.0, SVG Export Plug-In . SVG Version: 6.00 Build 0)  -->
<!DOCTYPE svg PUBLIC "-//W3C//DTD SVG 1.1//EN" "http://www.w3.org/Graphics/SVG/1.1/DTD/svg11.dtd">
<svg version="1.1" id="Layer_1" xmlns="http://www.w3.org/2000/svg" xmlns:xlink="http://www.w3.org/1999/xlink" x="0px" y="0px"
	 width="1000px" height="409.097px" viewBox="-446.5 -182.049 1000 409.097" enable-background="new -446.5 -182.049 1000 409.097"
	 xml:space="preserve">
<desc>Created with Sketch.</desc>
<g id="Star-logo" transform="translate(40.000000, 26.000000)">
	<g id="Star-Icon" transform="translate(0.462979, 0.360397)">
		<path id="Fill-1" fill="#FF8C00" d="M-58.079-51.329c-6.836,5.051-13.617,10.139-20.48,15.134
			c-29.972,21.775-59.979,43.514-89.951,65.289c-6.419,4.662-12.839,9.324-19.074,14.189c-0.962,0.759-1.757,2.887-1.387,4.015
			c3.312,10.602,6.946,21.109,10.342,31.674c4.107,12.729,8.029,25.521,12.127,38.241c4.135,12.728,8.418,25.401,12.571,38.111
			c4.662,14.272,9.269,28.564,13.856,42.829c0.176,0.546,0.02,1.165,0.02,2.46c-3.59-2.516-6.754-4.681-9.853-6.91
			c-25.179-18.223-50.35-36.418-75.511-54.66c-14.588-10.582-29.193-21.109-43.661-31.867c-2.757-2.044-4.495-1.859-7.15,0.083
			c-24.301,17.798-48.722,35.476-73.124,53.152c-17.872,12.933-35.753,25.809-53.661,38.704c-0.574,0.407-1.222,0.712-2.72,1.572
			c1.165-3.959,1.979-7.067,2.969-10.139c3.524-11.063,6.762-22.237,10.832-33.116c1.591-4.209,4.866-7.899,7.798-11.498
			c28.731-35.16,60.46-67.444,94.233-97.739c22.616-20.305,45.965-39.758,70.46-57.787c0.832-0.619,1.322-1.711,2.387-3.107
			c-6.087,1.405-11.906,2.321-17.428,4.162c-16.66,5.485-33.376,10.879-49.749,17.132c-23.255,8.898-45.308,20.388-66.658,33.19
			c-5.143,3.071-5.051,3.108-10.092-0.592c-28.084-20.582-56.168-41.127-84.252-61.7c-13.126-9.611-26.253-19.213-39.379-28.833
			c-0.87-0.639-1.656-1.397-2.35-2.988h5.828c51.043-0.019,102.096-0.037,153.14,0.037c2.913,0.019,4.541-0.555,5.494-3.626
			c6.271-19.722,12.683-39.388,19.139-59.073c5.014-15.356,10.157-30.656,15.171-45.993c4.819-14.634,9.546-29.287,14.319-43.921
			c0.297-0.897,0.722-1.721,1.508-3.506c2.748,8.418,5.152,15.901,7.623,23.375c3.589,10.878,7.242,21.738,10.813,32.635
			c4.782,14.634,9.509,29.287,14.272,43.921c4.376,13.459,8.816,26.9,13.201,40.331c1.276,3.95,2.636,7.882,3.672,11.896
			c0.73,2.904,2.035,3.986,5.217,3.978c51.812-0.102,103.613-0.074,155.416-0.056C-60.855-52.328-59.541-52.217-58.079-51.329"/>
	</g>
	<g id="Star-Type" transform="translate(53.314497, 16.884176)">
		<g id="Group-3" transform="translate(0.000000, 0.021883)">
			<g id="Clip-2">
			</g>
		</g>
		<path id="Fill-1_1_" fill="#FF8C00" d="M71.245-29.926c4.07-3.46,6.29-7.438,7.391-12.109c1.435-6.114-0.305-11.174-5.393-14.735
			c-2.756-1.942-5.883-3.682-9.111-4.569c-6.577-1.822-13.274-3.553-20.046-4.348c-14.375-1.684-28.657-0.823-42.422,4.162
			c-16.928,6.143-28.62,17.391-33.218,35.04c-1.323,5.069-2.026,10.397-2.174,15.634c-0.546,19.639,7.16,35.003,24.68,44.809
			c4.746,2.646,9.667,5.051,14.689,7.142c8.621,3.579,17.465,6.65,26.067,10.286c4.274,1.804,8.399,4.107,12.284,6.642
			c12.174,7.955,10.213,28.454-3.182,34.393c-4.625,2.054-9.417,3.22-14.412,3.663c-10.98,0.962-21.813-0.083-32.506-2.497
			c-7.4-1.665-14.727-3.7-22.516-5.689c-3.478,9.001-6.975,18.029-10.563,27.289c1.915,0.805,3.303,1.479,4.755,1.961
			c20.48,6.799,41.497,9.907,63.068,8.52c10.935-0.694,21.646-2.775,31.683-7.409c14.265-6.587,23.829-17.233,27.835-32.506
			c0.869-3.284,1.359-6.688,1.775-10.074c2.451-20.156-3.978-36.372-21.498-47.584c-1.581-1.018-3.107-2.127-4.772-2.941
			c-7.863-3.774-15.688-7.604-23.653-11.119c-6.836-3.016-13.94-5.42-20.73-8.51C15.197,3.671,11.118,1.46,7.695-1.38
			C-1.61-9.094-0.723-23.978,9.296-30.768c2.525-1.712,5.504-2.933,8.445-3.82c7.733-2.378,15.707-2.045,23.653-1.36
			C51.515-35.088,61.403-33.007,71.245-29.926"/>
		<path id="Fill-4" fill="#FF8C00" d="M150.225-18.844v-37.797c-11.858,2.044-23.145,3.996-34.735,5.994
			c-0.36,11.396-0.712,22.349-1.082,33.782H95.685c-1.665,8.307-3.229,16.15-4.921,24.643h23.782v5.541
			c0,19.879-0.019,39.758,0.01,59.637c0.009,6.207-0.111,12.433,0.24,18.631c1.073,18.64,11.951,30.471,30.415,33.458
			c11.563,1.869,22.997,0.889,34.356-1.526c6.53-1.378,12.969-3.062,19.426-5.929c-2.304-7.882-4.552-15.568-6.901-23.663
			c-2.84,0.573-5.393,1.064-7.937,1.619c-6.586,1.443-13.256,1.988-19.972,1.388c-7.816-0.703-11.841-4.348-13.293-12.025
			c-0.425-2.267-0.536-4.626-0.536-6.947c-0.037-22.044-0.028-44.097-0.01-66.149c0-1.202,0.194-2.387,0.343-4.107h40.85
			c1.609-9.01,3.108-17.501,4.718-26.548H150.225z"/>
		<path id="Fill-6" fill="#FF8C00" d="M402.852-3.452c-3.238-10.583-10.527-15.069-20.203-16.54c-6.401-0.971-12.803-0.916-19,0.943
			c-3.211,0.962-6.457,2.461-9.104,4.496c-5.457,4.181-6.4,10.758-3.016,17.132c2.591-0.176,5.236-0.62,7.836-0.481
			c6.503,0.352,9.861,3.83,10.295,10.342c0.111,1.702,0.074,3.423,0.074,5.125c0.01,32.783,0.01,65.557,0.01,98.331v5.976
			c12.367-0.064,24.097,0.186,36.058-0.166V20.849c6.466-4.736,13.663-7.382,21.267-8.298c7.483-0.906,15.115-0.74,22.969-1.045
			c3.266-9.778,6.642-19.852,10.147-30.313C438.28-23.396,419.392-19.113,402.852-3.452"/>
		<path id="Fill-8" fill="#FF8C00" d="M346.831,102.566c-3.135,0-5.929,0.176-8.695-0.036c-5.271-0.398-8.27-3.1-9.213-8.271
			c-0.389-2.118-0.463-4.319-0.472-6.484c-0.028-32.154-0.019-64.309-0.019-96.463v-6.567c-8.908-1.665-17.418-3.506-26.021-4.792
			c-14.578-2.183-29.203-2.581-43.735,0.463c-27.437,5.754-45.253,21.775-52.302,49.063c-3.792,14.644-4.005,29.49-2.09,44.402
			c1.184,9.148,3.552,17.964,7.937,26.159c7.012,13.099,17.751,21.535,32.376,24.542c17.205,3.533,33.468,0.73,48.527-8.437
			c1.295-0.786,2.572-1.563,4.033-2.442c4.015,6.809,10.23,9.972,17.438,10.776c5.68,0.639,11.516,0.5,17.232,0.056
			c4.515-0.342,8.789-2.063,12.35-5.088C349.606,114.833,350.55,107.598,346.831,102.566z M292.477,91.179
			c-7.289,4.005-15.171,5.495-23.366,5.161c-13.857-0.563-22.053-6.65-26.104-19.888c-4.385-14.366-4.986-29.083-1.462-43.699
			c3.979-16.539,15.837-25.789,32.986-26.308c3.886-0.111,7.789,0.083,11.675,0.343c1.979,0.129,3.922,0.721,6.271,1.175V91.179z"/>
	</g>
</g>
</svg>
